<?xml version="1.0" encoding="utf-8"?>
<!-- Generator: Adobe Illustrator 12.0.0, SVG Export Plug-In  -->
<!DOCTYPE svg PUBLIC "-//W3C//DTD SVG 1.1//EN" "http://www.w3.org/Graphics/SVG/1.1/DTD/svg11.dtd" [
	<!ENTITY ns_flows "http://ns.adobe.com/Flows/1.0/">
	<!ENTITY ns_svg "http://www.w3.org/2000/svg">
	<!ENTITY ns_xlink "http://www.w3.org/1999/xlink">
]>
<svg  version="1.1" xmlns="&ns_svg;" xmlns:xlink="&ns_xlink;" xmlns:a="http://ns.adobe.com/AdobeSVGViewerExtensions/3.0/"
	 width="432" height="232" viewBox="0 -0.2 432 232" enable-background="new 0 -0.2 432 232" xml:space="preserve">
<defs>
</defs>
<g>
	<defs>
		<path id="XMLID_2_" d="M0,3.8L0,3.8L0,3.8L0,3.8L0,3.8z M434,224.2 M0,3.8"/>
	</defs>
	<clipPath id="XMLID_1_">
		<use xlink:href="#XMLID_2_" />
	</clipPath>
</g>
<line fill="none" stroke="#000000" stroke-width="0.12" stroke-linecap="square" stroke-miterlimit="10" x1="116.3" y1="168.7" x2="116.3" y2="96.3"/>
<polyline fill-rule="evenodd" clip-rule="evenodd" points="117.8,168 116.3,168.9 114.7,168 114.7,95.2 117.8,97 117.8,168 "/>
<line fill="none" stroke="#000000" stroke-width="0.12" stroke-linecap="square" stroke-miterlimit="10" x1="125" y1="163.6" x2="125" y2="101.4"/>
<polyline fill-rule="evenodd" clip-rule="evenodd" points="126.5,163.9 123.5,163.9 123.5,101.2 126.5,101.2 126.5,163.9 "/>
<line fill="none" stroke="#000000" stroke-width="0.12" stroke-linecap="square" stroke-miterlimit="10" x1="179.2" y1="205" x2="116.5" y2="169"/>
<polyline fill-rule="evenodd" clip-rule="evenodd" points="179.3,203.5 179.3,207 116.3,170.6 116.3,168.9 117.8,168 179.3,203.5 
	"/>
<line fill="none" stroke="#000000" stroke-width="0.12" stroke-linecap="square" stroke-miterlimit="10" x1="242" y1="169" x2="179.5" y2="205"/>
<polyline fill-rule="evenodd" clip-rule="evenodd" points="240.7,168 243.8,169.8 179.3,207 179.3,203.5 240.7,168 "/>
<line fill="none" stroke="#000000" stroke-width="0.12" stroke-linecap="square" stroke-miterlimit="10" x1="233.4" y1="164" x2="179.4" y2="195"/>
<polyline fill-rule="evenodd" clip-rule="evenodd" points="232.8,162.6 234.4,165.2 180,196.5 178.6,193.9 232.8,162.6 "/>
<line fill="none" stroke="#000000" stroke-width="0.12" stroke-linecap="square" stroke-miterlimit="10" x1="242.3" y1="96.3" x2="242.3" y2="168.7"/>
<polyline fill-rule="evenodd" clip-rule="evenodd" points="240.7,97 242.3,96.2 243.8,97 243.8,169.8 240.7,168 240.7,97 "/>
<line fill="none" stroke="#000000" stroke-width="0.12" stroke-linecap="square" stroke-miterlimit="10" x1="179.5" y1="60" x2="242" y2="96"/>
<polyline fill-rule="evenodd" clip-rule="evenodd" points="179.3,61.5 179.3,58 242.3,94.4 242.3,96.2 240.7,97 179.3,61.5 "/>
<line fill="none" stroke="#000000" stroke-width="0.12" stroke-linecap="square" stroke-miterlimit="10" x1="179.4" y1="70" x2="233.4" y2="101"/>
<polyline fill-rule="evenodd" clip-rule="evenodd" points="178.6,71.1 180,68.6 234.4,99.9 232.8,102.6 178.6,71.1 "/>
<line fill="none" stroke="#000000" stroke-width="0.12" stroke-linecap="square" stroke-miterlimit="10" x1="116.5" y1="96" x2="179.2" y2="60"/>
<polyline fill-rule="evenodd" clip-rule="evenodd" points="117.8,97 114.7,95.2 179.3,58 179.3,61.5 117.8,97 "/>
<text transform="matrix(1 0 0 1 2.1602 221.6094)" font-family="'ArialMT'" font-size="45">H</text>
<text transform="matrix(1 0 0 1 34.5601 221.6094)" font-family="'ArialMT'" font-size="45">O</text>
<line fill="none" stroke="#000000" stroke-width="0.12" stroke-linecap="square" stroke-miterlimit="10" x1="68.2" y1="196.6" x2="116.2" y2="169"/>
<polyline fill-rule="evenodd" clip-rule="evenodd" points="68.6,198.1 67.2,195.4 114.7,168 116.3,168.9 116.3,170.6 68.6,198.1 "/>
<text transform="matrix(1 0 0 1 288.96 38.6094)" font-family="'ArialMT'" font-size="45">H</text>
<text transform="matrix(1 0 0 1 288.96 76.1699)" font-family="'ArialMT'" font-size="45">N</text>
<line fill="none" stroke="#000000" stroke-width="0.12" stroke-linecap="square" stroke-miterlimit="10" x1="288.8" y1="69.3" x2="242.4" y2="96"/>
<polyline fill-rule="evenodd" clip-rule="evenodd" points="288.2,67.9 289.8,70.5 243.8,97 242.3,96.2 242.3,94.4 288.2,67.9 "/>
<line fill="none" stroke="#000000" stroke-width="0.12" stroke-linecap="square" stroke-miterlimit="10" x1="368" y1="96" x2="321.4" y2="69.2"/>
<polyline fill-rule="evenodd" clip-rule="evenodd" points="368.2,94.4 368.2,97.9 320.5,70.4 322,67.8 368.2,94.4 "/>
<line fill="none" stroke="#000000" stroke-width="0.12" stroke-linecap="square" stroke-miterlimit="10" x1="430.9" y1="60" x2="368.4" y2="96"/>
<polyline fill-rule="evenodd" clip-rule="evenodd" points="430.4,58.5 431.2,59.8 431.9,61.2 368.2,97.9 368.2,94.4 430.4,58.5 "/>
<text transform="matrix(1 0 0 1 350.6406 185.25)" font-family="'ArialMT'" font-size="45">O</text>
<line fill="none" stroke="#000000" stroke-width="0.12" stroke-linecap="square" stroke-miterlimit="10" x1="372.6" y1="150.2" x2="372.6" y2="93.8"/>
<polyline fill-rule="evenodd" clip-rule="evenodd" points="374,150.3 371,150.3 371,93.7 374,93.7 374,150.3 "/>
<line fill="none" stroke="#000000" stroke-width="0.12" stroke-linecap="square" stroke-miterlimit="10" x1="363.8" y1="150.2" x2="363.8" y2="93.8"/>
<polyline fill-rule="evenodd" clip-rule="evenodd" points="365.4,150.3 362.3,150.3 362.3,93.7 365.4,93.7 365.4,150.3 "/>
</svg>
