<?xml version="1.0" encoding="UTF-8" standalone="no"?>
<!-- Created with Inkscape (http://www.inkscape.org/) -->
<svg
   xmlns:svg="http://www.w3.org/2000/svg"
   xmlns="http://www.w3.org/2000/svg"
   version="1.0"
   width="620"
   height="334.42001"
   id="svg2">
  <defs
     id="defs4" />
  <g
     transform="translate(116.5,-467.47122)"
     id="layer1">
    <path
       d="M 316.77609,790.94311 C 312.73424,789.50161 310.62264,787.37809 308.12997,782.24819 C 306.64327,779.18861 306.41364,777.90841 306.40359,772.62367 C 306.39077,765.88552 307.71093,761.83718 311.07825,758.28854 C 314.90693,754.25369 322.01739,752.4253 327.79856,753.98908 C 331.14984,754.8956 335.18303,758.52266 336.53645,761.84712 L 337.50413,764.22408 L 335.10157,764.88817 C 333.78017,765.25343 332.62569,765.33874 332.53607,765.07776 C 331.88478,763.18123 329.4796,760.21127 327.73222,759.14588 C 323.09068,756.31589 315.98313,758.50364 313.12916,763.64078 C 311.73332,766.15329 311.52507,767.31949 311.52507,772.62367 C 311.52507,777.92785 311.73332,779.09405 313.12916,781.60656 C 315.27184,785.46339 319.23623,787.57739 323.60352,787.192 C 327.46151,786.85154 329.67638,785.26573 331.73657,781.36881 C 333.28079,778.44787 333.42447,778.34993 335.58638,778.74455 C 336.82153,778.97 337.92438,779.24505 338.03715,779.35576 C 338.71618,780.02236 335.01404,786.48791 332.93368,788.26861 C 328.82918,791.78192 322.20326,792.87868 316.77609,790.94311 z M 354.38193,790.98201 C 350.29645,789.64637 346.7926,786.51332 344.76366,782.3816 C 343.17666,779.14987 342.96518,778.00243 342.96518,772.62367 C 342.96518,767.23946 343.17585,766.09913 344.77046,762.85184 C 348.63153,754.98908 356.6424,751.68609 365.46635,754.31865 C 372.26558,756.34715 376.45379,762.29114 377.09948,770.82865 C 377.99464,782.66467 371.60139,790.98324 361.12081,791.61928 C 358.75033,791.76314 355.96584,791.49982 354.38193,790.98201 z M 366.85623,785.0541 C 369.95984,782.58007 371.55636,779.31653 371.98716,774.5657 C 372.64761,767.28209 369.93681,761.40122 364.85525,759.0936 C 358.22202,756.08132 350.80012,759.46993 348.72481,766.45827 C 345.30627,777.96975 351.02449,787.83037 360.7607,787.21323 C 363.67495,787.0285 364.94273,786.57943 366.85623,785.0541 z M 394.16329,790.98201 C 390.07781,789.64637 386.57396,786.51332 384.54501,782.3816 C 382.95802,779.14987 382.74654,778.00243 382.74654,772.62367 C 382.74654,767.23946 382.95721,766.09913 384.55182,762.85184 C 388.41289,754.98908 396.42376,751.68609 405.24771,754.31865 C 412.04694,756.34715 416.23515,762.29114 416.88084,770.82865 C 417.77599,782.66467 411.38274,790.98324 400.90217,791.61928 C 398.53168,791.76314 395.74719,791.49982 394.16329,790.98201 z M 406.63759,785.0541 C 409.7412,782.58007 411.33772,779.31653 411.76851,774.5657 C 412.42897,767.28209 409.71817,761.40122 404.63661,759.0936 C 398.00338,756.08132 390.58148,759.46993 388.50617,766.45827 C 385.08763,777.96975 390.80584,787.83037 400.54205,787.21323 C 403.45631,787.0285 404.72409,786.57943 406.63759,785.0541 z M 424.13198,772.62367 L 424.13198,754.01626 L 426.69852,754.01626 L 429.26506,754.01626 L 429.26506,761.71588 L 429.26506,769.4155 L 438.88958,769.4155 L 448.51411,769.4155 L 448.51411,761.71588 L 448.51411,754.01626 L 451.08064,754.01626 L 453.64718,754.01626 L 453.64718,772.62367 L 453.64718,791.23108 L 451.08064,791.23108 L 448.51411,791.23108 L 448.51411,782.56901 L 448.51411,773.90694 L 438.88958,773.90694 L 429.26506,773.90694 L 429.26506,782.56901 L 429.26506,791.23108 L 426.69852,791.23108 L 424.13198,791.23108 L 424.13198,772.62367 z M 307.16861,751.62851 C 306.98025,750.64793 306.87282,749.81402 306.92988,749.77538 C 306.98695,749.73674 310.20972,748.65017 314.09161,747.36078 C 320.6682,745.17634 321.20489,745.09183 321.96029,746.12182 C 322.40617,746.72979 322.67754,747.50753 322.56334,747.85013 C 322.39647,748.35075 316.40203,750.58952 308.58729,753.06982 C 307.79909,753.31998 307.41943,752.93426 307.16861,751.62851 z M 64.362998,744.14267 C 60.277523,742.80703 56.773671,739.67398 54.744725,735.54226 C 53.157732,732.31053 52.946249,731.16308 52.946249,725.78433 C 52.946249,720.40012 53.156917,719.25979 54.751527,716.0125 C 58.612603,708.14974 66.623471,704.84675 75.447419,707.47931 C 82.24665,709.50781 86.434857,715.4518 87.080547,723.98931 C 87.975704,735.82533 81.582455,744.1439 71.101877,744.77994 C 68.731395,744.9238 65.946906,744.66048 64.362998,744.14267 z M 76.837296,738.21476 C 79.940909,735.74073 81.537431,732.47719 81.968225,727.72636 C 82.628679,720.44275 79.917881,714.56188 74.836319,712.25425 C 68.203086,709.24198 60.781194,712.63059 58.705877,719.61893 C 55.287337,731.13041 61.005554,740.99103 70.741765,740.37389 C 73.656019,740.18916 74.9238,739.74009 76.837296,738.21476 z M 305.20457,741.67586 C 304.99853,740.88792 305.03704,740.04706 305.29015,739.80727 C 305.86532,739.26238 317.01689,735.8623 317.26507,736.15615 C 317.36501,736.27448 317.75531,736.96589 318.13241,737.6926 C 318.77539,738.93173 318.42957,739.14124 312.57208,741.06119 C 309.13681,742.18719 306.15808,743.10847 305.95267,743.10847 C 305.74727,743.10847 305.41063,742.46379 305.20457,741.67586 z M 303.23176,731.84242 C 302.99459,730.89748 302.88678,730.05501 302.99219,729.97026 C 303.09759,729.88551 305.38917,729.08409 308.0846,728.18933 L 312.98538,726.56248 L 313.72293,728.18123 C 314.12858,729.07153 314.37748,729.86786 314.27605,729.95082 C 314.17461,730.03379 312.07046,730.76057 309.60017,731.56588 C 307.12988,732.37119 304.78343,733.14943 304.38585,733.29529 C 303.98827,733.44114 303.46893,732.78736 303.23176,731.84242 z M 301.23842,721.86994 C 301.00313,721.12861 301.05586,720.2979 301.35559,720.0239 C 302.09497,719.348 308.65393,717.24541 308.98627,717.57775 C 309.13225,717.72373 309.33009,718.5145 309.42593,719.33502 C 309.57347,720.59825 309.1085,721.00247 306.392,721.97261 C 302.18511,723.475 301.74507,723.46623 301.23842,721.86994 z M 90.802818,712.95176 C 89.588825,711.61032 89.627323,711.56722 112.32769,688.8601 L 135.06873,666.11229 L 131.70353,666.11229 L 128.33834,666.11229 L 128.33834,663.06792 L 128.33834,660.02354 L 105.68712,682.66802 L 83.035899,705.3125 L 81.819744,703.96867 C 80.60572,702.62719 80.645334,702.58308 104.47097,678.75109 L 128.33834,654.87735 L 128.33834,617.9291 L 128.33834,580.98085 L 126.57384,580.17122 C 125.60337,579.72592 113.98528,574.60616 100.75586,568.79396 C 87.526444,562.98177 76.592467,558.11644 76.458135,557.9821 C 76.323802,557.84777 77.994542,554.56983 80.170897,550.69779 L 84.127897,543.65772 L 107.6345,560.93303 L 131.1411,578.20833 L 172.51189,578.20833 L 213.88267,578.20833 L 243.70354,568.52841 C 274.17717,558.63662 274.99815,558.44889 274.4672,561.49402 C 274.35853,562.11729 264.82243,565.49823 245.59444,571.7306 L 216.88394,581.03654 L 216.88394,612.02499 L 216.88394,643.01344 L 214.95904,643.01344 L 213.03413,643.01344 L 213.03413,612.21497 L 213.03413,581.4165 L 172.61114,581.4165 L 132.18815,581.4165 L 132.18815,622.16031 L 132.18815,662.90412 L 163.94907,662.90412 L 195.70999,662.90412 L 195.70999,664.50821 L 195.70999,666.11229 L 167.96241,666.11229 L 140.21483,666.11229 L 116.11691,690.20395 L 92.018991,714.29562 L 90.802818,712.95176 z M 299.40124,712.57466 C 298.60206,710.49202 299.07188,709.77712 301.70584,709.06787 C 304.06252,708.43328 304.50284,708.48553 305.23483,709.48659 C 306.51033,711.23094 306.29358,711.55926 303.34423,712.35029 C 301.84441,712.75255 300.43098,713.19512 300.20329,713.33379 C 299.9756,713.47245 299.61468,713.13084 299.40124,712.57466 z M 297.34644,702.43272 C 296.77325,700.93901 297.42054,699.70788 298.99564,699.29598 C 300.02245,699.02747 300.54926,699.33013 301.07907,700.49293 C 301.9066,702.30914 301.82598,702.43819 299.49909,703.0222 C 298.19439,703.34965 297.64005,703.19786 297.34644,702.43272 z M 480.10634,694.34622 C 478.95485,693.64416 477.52174,692.04012 476.92165,690.78171 C 475.97325,688.7929 475.95335,688.416 476.76953,687.89978 C 478.36359,686.89154 479.12533,687.21005 479.96437,689.23567 C 480.91654,691.53442 482.33685,692.41932 485.07427,692.41932 C 488.8549,692.41932 491.38771,688.09981 489.58366,684.7289 C 488.81689,683.2962 485.07947,681.95022 483.52467,682.54685 C 482.6385,682.88691 482.45262,682.67855 482.62469,681.53808 C 482.77753,680.52514 483.58045,679.84793 485.34396,679.24456 C 489.14824,677.94296 490.05142,675.56787 487.65383,673.17028 C 485.26605,670.7825 480.3678,672.25033 479.21858,675.698 C 479.02991,676.26399 478.45231,676.39554 477.49289,676.09102 C 475.67091,675.51275 476.10527,673.64303 478.67644,670.9965 C 481.22624,668.37196 485.79941,667.95493 488.88763,670.06533 C 492.42997,672.48606 493.08796,676.95938 490.2581,679.38239 C 489.08729,680.38486 489.11934,680.48631 491.23812,682.48458 C 497.99962,688.86149 488.21351,699.28921 480.10634,694.34622 z M 265.969,683.74109 C 237.23391,675.00037 235.82038,674.49901 235.98641,673.10668 C 236.08224,672.30301 236.29382,671.51229 236.45659,671.34952 C 236.61936,671.18675 249.79725,675.01219 265.74079,679.85049 C 293.58892,688.30141 294.77202,688.6017 295.82184,687.48559 C 297.06911,686.15956 343.286,622.53766 343.286,622.1467 C 343.286,622.00604 336.60879,612.71203 328.44776,601.49332 C 320.28672,590.27462 312.66566,579.79637 311.51207,578.20833 L 309.41463,575.32097 L 310.867,574.23158 L 312.31937,573.14218 L 329.2404,596.4708 C 338.54697,609.30154 346.30848,619.71437 346.48821,619.61041 C 379.66103,600.42356 397.25916,590.39939 397.77019,590.39939 C 398.12838,590.39939 398.72522,590.967 399.0965,591.66075 C 399.64837,592.69192 399.50611,593.09061 398.31703,593.84533 C 397.10089,594.61724 353.49937,619.77512 350.25545,621.57664 C 349.44327,622.02769 355.14716,625.58314 375.35915,637.22475 C 400.46611,651.68574 401.48721,652.34758 400.84966,653.74685 C 400.48438,654.54856 399.96452,655.2045 399.69442,655.2045 C 399.42431,655.2045 387.28216,648.31422 372.71186,639.89275 C 346.47229,624.72659 346.21058,624.5939 345.18675,625.9372 C 344.61824,626.6831 333.80705,641.5858 321.1619,659.05431 C 308.51674,676.52282 297.71061,691.28752 297.14827,691.86476 C 296.20398,692.83408 293.82114,692.21324 265.969,683.74109 z M -22.899335,684.47063 C -26.98481,683.13499 -30.488662,680.00194 -32.517608,675.87022 C -34.104602,672.63849 -34.316085,671.49105 -34.316085,666.11229 C -34.316085,660.72809 -34.105417,659.58775 -32.510807,656.34046 C -28.649731,648.4777 -20.638862,645.17472 -11.814914,647.80727 C -5.0156837,649.83577 -0.8274767,655.77977 -0.1817867,664.31727 C 0.7133711,676.15329 -5.6798777,684.47186 -16.160457,685.10791 C -18.530938,685.25177 -21.315428,684.98845 -22.899335,684.47063 z M -10.425037,678.54272 C -7.3214237,676.06869 -5.7249017,672.80515 -5.2941077,668.05432 C -4.6336537,660.77071 -7.3444517,654.88984 -12.426014,652.58222 C -19.059247,649.56994 -26.48114,652.95856 -28.556456,659.9469 C -31.974997,671.45837 -26.256779,681.31899 -16.520568,680.70185 C -13.606314,680.51712 -12.338533,680.06806 -10.425037,678.54272 z M 413.66294,684.43173 C 409.6211,682.99023 407.5095,680.86671 405.01682,675.73682 C 403.53013,672.67723 403.3005,671.39703 403.29045,666.11229 C 403.27763,659.37414 404.59778,655.3258 407.9651,651.77716 C 411.79379,647.74231 418.90424,645.91393 424.68541,647.47771 C 428.0367,648.38422 432.06988,652.01128 433.4233,655.33574 L 434.39099,657.7127 L 431.98843,658.3768 C 430.66703,658.74205 429.51255,658.82736 429.42292,658.56638 C 428.77164,656.66985 426.36646,653.69989 424.61907,652.6345 C 419.97753,649.80452 412.86999,651.99226 410.01602,657.12941 C 408.62018,659.64191 408.41193,660.80811 408.41193,666.11229 C 408.41193,671.41648 408.62018,672.58267 410.01602,675.09518 C 412.1587,678.95201 416.12308,681.06601 420.49038,680.68062 C 424.34837,680.34017 426.56323,678.75435 428.62343,674.85743 C 430.16765,671.93649 430.31132,671.83855 432.47324,672.23318 C 433.70838,672.45863 434.81123,672.73367 434.924,672.84438 C 435.60304,673.51098 431.90089,679.97653 429.82054,681.75724 C 425.71603,685.27055 419.09011,686.3673 413.66294,684.43173 z M 200.20144,666.11229 L 200.20144,647.50488 L 202.92838,647.52121 L 205.65533,647.53754 L 215.11769,661.79758 L 224.58004,676.05763 L 224.5818,661.78126 L 224.58356,647.50488 L 227.1501,647.50488 L 229.71664,647.50488 L 229.71664,666.11229 L 229.71664,684.7197 L 226.98969,684.70338 L 224.26274,684.68705 L 214.80039,670.42701 L 205.33803,656.16695 L 205.33627,670.44333 L 205.33451,684.7197 L 202.76798,684.7197 L 200.20144,684.7197 L 200.20144,666.11229 z M 441.45612,666.11229 L 441.45612,647.50488 L 444.02266,647.50488 L 446.5892,647.50488 L 446.5892,655.2045 L 446.5892,662.90412 L 456.21372,662.90412 L 465.83824,662.90412 L 465.83824,655.2045 L 465.83824,647.50488 L 468.40478,647.50488 L 470.97132,647.50488 L 470.97132,666.11229 L 470.97132,684.7197 L 468.40478,684.7197 L 465.83824,684.7197 L 465.83824,676.05763 L 465.83824,667.39556 L 456.21372,667.39556 L 446.5892,667.39556 L 446.5892,676.05763 L 446.5892,684.7197 L 444.02266,684.7197 L 441.45612,684.7197 L 441.45612,666.11229 z M -25.01238,610.07013 L -25.01238,577.12681 L -47.464253,564.14107 C -68.866227,551.76257 -69.882308,551.09026 -69.192924,549.76381 C -68.795163,548.99849 -68.401066,548.2886 -68.317153,548.1863 C -68.23324,548.08399 -57.228212,554.31764 -43.861532,562.03886 C -30.494854,569.76007 -18.920051,576.41667 -18.139746,576.83129 C -16.866775,577.50769 -14.136555,576.09182 8.4323854,563.05117 C 31.877438,549.50429 33.644026,548.59686 34.443535,549.69024 C 34.915297,550.33543 35.301292,551.06649 35.301292,551.31483 C 35.301292,551.56318 25.344961,557.49925 13.176107,564.50612 L -8.9490777,577.24587 L -8.9602937,610.12966 L -8.9715097,643.01344 L -10.575597,643.01344 L -12.179684,643.01344 L -12.179684,611.25252 C -12.179684,593.78401 -12.317071,579.4916 -12.484993,579.4916 C -12.652915,579.4916 -13.694134,580.04125 -14.798818,580.71304 C -16.780141,581.91796 -16.83681,581.9171 -18.984952,580.64967 L -21.162571,579.36484 L -21.162571,611.18914 L -21.162571,643.01344 L -23.087476,643.01344 L -25.01238,643.01344 L -25.01238,610.07013 z M 480.10634,609.00879 C 478.95485,608.30673 477.52174,606.70269 476.92165,605.44428 C 475.97325,603.45547 475.95335,603.07857 476.76953,602.56235 C 478.36359,601.55411 479.12533,601.87263 479.96437,603.89824 C 480.91654,606.19699 482.33685,607.08189 485.07427,607.08189 C 488.8549,607.08189 491.38771,602.76238 489.58366,599.39148 C 488.81689,597.95877 485.07947,596.61279 483.52467,597.20942 C 482.6385,597.54948 482.45262,597.34113 482.62469,596.20065 C 482.77753,595.18772 483.58045,594.5105 485.34396,593.90713 C 489.14824,592.60553 490.05142,590.23044 487.65383,587.83285 C 485.26605,585.44507 480.3678,586.9129 479.21858,590.36057 C 479.02991,590.92656 478.45231,591.05811 477.49289,590.7536 C 475.67091,590.17532 476.10527,588.3056 478.67644,585.65907 C 481.22624,583.03453 485.79941,582.6175 488.88763,584.7279 C 492.42997,587.14863 493.08796,591.62195 490.2581,594.04496 C 489.08729,595.04743 489.11934,595.14888 491.23812,597.14715 C 497.99962,603.52406 488.21351,613.95178 480.10634,609.00879 z M 413.66294,599.0943 C 409.6211,597.6528 407.5095,595.52928 405.01682,590.39939 C 403.53013,587.3398 403.3005,586.0596 403.29045,580.77487 C 403.27763,574.03671 404.59778,569.98837 407.9651,566.43973 C 411.79379,562.40488 418.90424,560.5765 424.68541,562.14028 C 428.0367,563.04679 432.06988,566.67385 433.4233,569.99831 L 434.39099,572.37527 L 431.98843,573.03937 C 430.66703,573.40462 429.51255,573.48994 429.42292,573.22895 C 428.77164,571.33242 426.36646,568.36247 424.61907,567.29707 C 419.97753,564.46709 412.86999,566.65483 410.01602,571.79198 C 408.62018,574.30449 408.41193,575.47068 408.41193,580.77487 C 408.41193,586.07905 408.62018,587.24525 410.01602,589.75775 C 412.1587,593.61458 416.12308,595.72858 420.49038,595.34319 C 424.34837,595.00274 426.56323,593.41692 428.62343,589.52 C 430.16765,586.59906 430.31132,586.50112 432.47324,586.89575 C 433.70838,587.1212 434.81123,587.39624 434.924,587.50696 C 435.60304,588.17356 431.90089,594.6391 429.82054,596.41981 C 425.71603,599.93312 419.09011,601.02987 413.66294,599.0943 z M 441.45612,580.77487 L 441.45612,562.16746 L 444.02266,562.16746 L 446.5892,562.16746 L 446.5892,569.86707 L 446.5892,577.56669 L 456.21372,577.56669 L 465.83824,577.56669 L 465.83824,569.86707 L 465.83824,562.16746 L 468.40478,562.16746 L 470.97132,562.16746 L 470.97132,580.77487 L 470.97132,599.38227 L 468.40478,599.38227 L 465.83824,599.38227 L 465.83824,590.7202 L 465.83824,582.05813 L 456.21372,582.05813 L 446.5892,582.05813 L 446.5892,590.7202 L 446.5892,599.38227 L 444.02266,599.38227 L 441.45612,599.38227 L 441.45612,580.77487 z M 289.94745,573.35457 C 286.38631,572.25806 282.726,568.50742 281.73533,564.93982 C 280.6802,561.14007 280.79552,560.88419 283.56298,560.88419 C 285.82745,560.88419 286.12008,561.07331 286.4947,562.77896 C 286.72359,563.82108 287.51685,565.44412 288.2575,566.3857 C 292.93812,572.33615 304.78791,570.10896 304.78791,563.27879 C 304.78791,560.30535 302.50761,558.72777 295.38692,556.77486 C 287.8907,554.71897 285.38697,553.37714 283.6105,550.46349 C 280.9771,546.14438 282.84818,540.1814 287.63281,537.64467 C 291.26091,535.7211 299.39861,535.59262 303.05963,537.40109 C 305.95826,538.83295 308.46941,541.91648 309.03341,544.73649 C 309.43712,546.75502 309.42257,546.76822 306.79302,546.76822 C 304.88062,546.76822 304.14627,546.504 304.14627,545.81589 C 304.14627,545.29211 303.32299,543.94215 302.31675,542.81597 C 300.72786,541.03769 299.98185,540.73182 296.64492,540.49045 C 291.06016,540.08648 287.46377,542.24987 287.46377,546.01332 C 287.46377,548.62054 289.55594,550.011 296.31269,551.89434 C 306.5293,554.74207 309.24208,556.90893 309.71661,562.60089 C 310.43436,571.21009 300.51196,576.60751 289.94745,573.35457 z M 213.03413,568.90462 C 213.03413,567.51174 213.31811,567.30053 215.19088,567.30053 C 217.14542,567.30053 217.31887,567.45092 217.04098,568.90462 C 216.79835,570.17388 216.34816,570.50871 214.88423,570.50871 C 213.33855,570.50871 213.03413,570.24477 213.03413,568.90462 z M 211.75086,559.2801 C 211.75086,557.78295 211.96474,557.67601 214.95904,557.67601 C 217.95333,557.67601 218.16721,557.78295 218.16721,559.2801 C 218.16721,560.77724 217.95333,560.88419 214.95904,560.88419 C 211.96474,560.88419 211.75086,560.77724 211.75086,559.2801 z M -106.5,538.37501 L -106.5,519.71564 L -95.11098,519.92868 C -82.104468,520.17198 -80.456763,520.66244 -78.274364,524.9403 C -75.472048,530.43329 -77.339596,535.58675 -83.162454,538.42887 L -86.452753,540.03485 L -84.863829,541.23338 C -83.342518,542.38091 -79.820419,547.48239 -76.058902,553.98661 L -74.296321,557.03438 L -77.20158,557.03438 L -80.106838,557.03438 L -83.317133,551.74089 C -89.770687,541.09956 -90.60493,540.40837 -97.03589,540.37461 L -101.36692,540.35187 L -101.36692,548.69313 L -101.36692,557.03438 L -103.93346,557.03438 L -106.5,557.03438 L -106.5,538.37501 z M -85.677907,534.9523 C -81.881759,533.36616 -80.981319,529.55499 -83.664897,526.43209 C -85.185739,524.66228 -85.348595,524.62822 -93.28942,524.41908 L -101.36692,524.20635 L -101.36692,530.03338 L -101.36692,535.86043 L -94.60915,535.86043 C -90.23341,535.86043 -87.085252,535.54032 -85.677907,534.9523 z M 41.71764,538.42697 L 41.71764,519.81956 L 44.444588,519.83589 L 47.171535,519.85221 L 56.633891,534.11226 L 66.096246,548.37231 L 66.098004,534.09593 L 66.099762,519.81956 L 68.666301,519.81956 L 71.232841,519.81956 L 71.232841,538.42697 L 71.232841,557.03438 L 68.505893,557.01805 L 65.778945,557.00172 L 56.316589,542.74168 L 46.854234,528.48163 L 46.852476,542.758 L 46.850718,557.03438 L 44.284179,557.03438 L 41.71764,557.03438 L 41.71764,538.42697 z M 210.89535,551.47354 C 210.66008,551.23828 210.46759,550.37207 210.46759,549.54864 C 210.46759,548.12278 210.68147,548.05149 214.95904,548.05149 L 219.45048,548.05149 L 219.45048,549.97639 L 219.45048,551.9013 L 215.3868,551.9013 C 213.15176,551.9013 211.13061,551.70881 210.89535,551.47354 z M 209.8172,541.79555 C 209.81238,541.53088 209.63433,540.66467 209.42154,539.87065 C 209.04103,538.45078 209.13113,538.42697 214.8842,538.42697 L 220.73375,538.42697 L 220.73375,540.35187 L 220.73375,542.27678 L 215.27985,542.27678 C 212.28021,542.27678 209.82202,542.06023 209.8172,541.79555 z M 208.54269,532.08554 C 208.54269,531.74916 208.36743,531.01722 208.15322,530.45901 C 207.8124,529.57084 208.65938,529.44408 214.93501,529.44408 C 222.00487,529.44408 222.10337,529.4645 221.90124,530.88776 C 221.70583,532.26361 221.38722,532.34003 215.11945,532.51429 C 211.2501,532.62187 208.54269,532.44537 208.54269,532.08554 z M 207.25942,521.42365 L 207.25942,519.81956 L 215.27985,519.81956 C 219.72279,519.81956 223.30029,520.08235 223.30029,520.40871 C 223.30029,522.82076 222.63567,523.02773 214.89039,523.02773 L 207.25942,523.02773 L 207.25942,521.42365 z M 41.71764,496.07907 L 41.71764,477.47166 L 44.284179,477.47166 L 46.850718,477.47166 L 46.850718,485.17128 L 46.850718,492.8709 L 56.47524,492.8709 L 66.099762,492.8709 L 66.099762,485.17128 L 66.099762,477.47166 L 68.666301,477.47166 L 71.232841,477.47166 L 71.232841,496.07907 L 71.232841,514.68648 L 68.666301,514.68648 L 66.099762,514.68648 L 66.099762,506.02441 L 66.099762,497.36234 L 56.47524,497.36234 L 46.850718,497.36234 L 46.850718,506.02441 L 46.850718,514.68648 L 44.284179,514.68648 L 41.71764,514.68648 L 41.71764,496.07907 z M 200.20144,496.07907 L 200.20144,477.47166 L 202.76798,477.47166 L 205.33451,477.47166 L 205.33451,485.17128 L 205.33451,492.8709 L 214.95904,492.8709 L 224.58356,492.8709 L 224.58356,485.17128 L 224.58356,477.47166 L 227.1501,477.47166 L 229.71664,477.47166 L 229.71664,496.07907 L 229.71664,514.68648 L 227.1501,514.68648 L 224.58356,514.68648 L 224.58356,506.02441 L 224.58356,497.36234 L 214.95904,497.36234 L 205.33451,497.36234 L 205.33451,506.02441 L 205.33451,514.68648 L 202.76798,514.68648 L 200.20144,514.68648 L 200.20144,496.07907 z"
       id="path2453"
       style="fill:#000000" />
  </g>
</svg>
